<svg xmlns="http://www.w3.org/2000/svg" xmlns:xlink="http://www.w3.org/1999/xlink" width="566" zoomAndPan="magnify" viewBox="0 0 424.5 143.999998" height="192" preserveAspectRatio="xMidYMid meet" version="1.2"><defs><clipPath id="423e274cd2"><path d="M 0 0.0859375 L 424 0.0859375 L 424 143.914062 L 0 143.914062 Z M 0 0.0859375 "/></clipPath></defs><g id="2e800a1fdc"><g clip-rule="nonzero" clip-path="url(#423e274cd2)"><path style=" stroke:none;fill-rule:nonzero;fill:none;fill-opacity:1;" d="M 0 0.0859375 L 424 0.0859375 L 424 143.914062 L 0 143.914062 Z M 0 0.0859375 "/></g><g style="fill:#0097b2;fill-opacity:1;"><g transform="translate(88.298772, 86.839249)"><path style="stroke:none" d="M 25.640625 0 L 19.90625 0 L 19.90625 -11.703125 L 9.171875 -11.703125 L 9.171875 0 L 3.421875 0 L 3.421875 -27.125 L 9.171875 -27.125 L 9.171875 -16.5 L 19.90625 -16.5 L 19.90625 -27.125 L 25.640625 -27.125 Z M 25.640625 0 "/></g></g><g style="fill:#0097b2;fill-opacity:1;"><g transform="translate(117.369781, 86.839249)"><path style="stroke:none" d="M 19.03125 0 L 3.421875 0 L 3.421875 -27.125 L 19.03125 -27.125 L 19.03125 -22.421875 L 9.171875 -22.421875 L 9.171875 -16.453125 L 18.34375 -16.453125 L 18.34375 -11.75 L 9.171875 -11.75 L 9.171875 -4.75 L 19.03125 -4.75 Z M 19.03125 0 "/></g></g><g style="fill:#0097b2;fill-opacity:1;"><g transform="translate(138.648944, 86.839249)"><path style="stroke:none" d="M 27.484375 0 L 20.171875 0 L 8.375 -20.515625 L 8.203125 -20.515625 C 8.429688 -16.890625 8.546875 -14.304688 8.546875 -12.765625 L 8.546875 0 L 3.421875 0 L 3.421875 -27.125 L 10.671875 -27.125 L 22.453125 -6.8125 L 22.578125 -6.8125 C 22.390625 -10.332031 22.296875 -12.820312 22.296875 -14.28125 L 22.296875 -27.125 L 27.484375 -27.125 Z M 27.484375 0 "/></g></g><g style="fill:#0097b2;fill-opacity:1;"><g transform="translate(169.538051, 86.839249)"><path style="stroke:none" d="M 9.171875 -15.078125 L 11.015625 -15.078125 C 12.835938 -15.078125 14.179688 -15.378906 15.046875 -15.984375 C 15.910156 -16.597656 16.34375 -17.554688 16.34375 -18.859375 C 16.34375 -20.140625 15.898438 -21.050781 15.015625 -21.59375 C 14.128906 -22.144531 12.757812 -22.421875 10.90625 -22.421875 L 9.171875 -22.421875 Z M 9.171875 -10.40625 L 9.171875 0 L 3.421875 0 L 3.421875 -27.125 L 11.3125 -27.125 C 15 -27.125 17.726562 -26.453125 19.5 -25.109375 C 21.269531 -23.765625 22.15625 -21.726562 22.15625 -19 C 22.15625 -17.40625 21.710938 -15.984375 20.828125 -14.734375 C 19.953125 -13.492188 18.710938 -12.519531 17.109375 -11.8125 C 21.191406 -5.71875 23.851562 -1.78125 25.09375 0 L 18.703125 0 L 12.234375 -10.40625 Z M 9.171875 -10.40625 "/></g></g><g style="fill:#0097b2;fill-opacity:1;"><g transform="translate(194.620378, 86.839249)"><path style="stroke:none" d="M 11.859375 -15.953125 L 17.515625 -27.125 L 23.71875 -27.125 L 14.71875 -10.5625 L 14.71875 0 L 9 0 L 9 -10.375 L 0 -27.125 L 6.234375 -27.125 Z M 11.859375 -15.953125 "/></g></g><g style="fill:#0097b2;fill-opacity:1;"><g transform="translate(32.031486, 102.215193)"><path style="stroke:none" d="M 41.171875 -7.734375 L 3.359375 -24.40625 L 3.359375 -29.859375 L 41.171875 -48.75 L 41.171875 -39.609375 L 15.125 -27.53125 L 41.171875 -16.828125 Z M 41.171875 -7.734375 "/></g></g><g style="fill:#0097b2;fill-opacity:1;"><g transform="translate(224.620458, 102.215193)"><path style="stroke:none" d="M 31.84375 -55.6875 L 11.078125 0 L 0.53125 0 L 21.296875 -55.6875 Z M 31.84375 -55.6875 "/></g></g><g style="fill:#0097b2;fill-opacity:1;"><g transform="translate(262.270126, 86.839249)"><path style="stroke:none" d="M 25.921875 -13.828125 C 25.921875 -9.359375 24.648438 -5.9375 22.109375 -3.5625 C 19.566406 -1.1875 15.894531 0 11.09375 0 L 3.421875 0 L 3.421875 -27.125 L 11.9375 -27.125 C 16.363281 -27.125 19.800781 -25.953125 22.25 -23.609375 C 24.695312 -21.273438 25.921875 -18.015625 25.921875 -13.828125 Z M 19.953125 -13.671875 C 19.953125 -19.503906 17.378906 -22.421875 12.234375 -22.421875 L 9.171875 -22.421875 L 9.171875 -4.75 L 11.640625 -4.75 C 17.179688 -4.75 19.953125 -7.722656 19.953125 -13.671875 Z M 19.953125 -13.671875 "/></g></g><g style="fill:#0097b2;fill-opacity:1;"><g transform="translate(290.394984, 86.839249)"><path style="stroke:none" d="M 19.03125 0 L 3.421875 0 L 3.421875 -27.125 L 19.03125 -27.125 L 19.03125 -22.421875 L 9.171875 -22.421875 L 9.171875 -16.453125 L 18.34375 -16.453125 L 18.34375 -11.75 L 9.171875 -11.75 L 9.171875 -4.75 L 19.03125 -4.75 Z M 19.03125 0 "/></g></g><g style="fill:#0097b2;fill-opacity:1;"><g transform="translate(311.674146, 86.839249)"><path style="stroke:none" d="M 18.890625 -27.125 L 24.703125 -27.125 L 15.46875 0 L 9.203125 0 L 0 -27.125 L 5.8125 -27.125 L 10.90625 -10.984375 C 11.195312 -10.035156 11.492188 -8.925781 11.796875 -7.65625 C 12.097656 -6.382812 12.285156 -5.503906 12.359375 -5.015625 C 12.492188 -6.148438 12.957031 -8.140625 13.75 -10.984375 Z M 18.890625 -27.125 "/></g></g><g style="fill:#0097b2;fill-opacity:1;"><g transform="translate(346.838816, 100.715102)"><path style="stroke:none" d="M 3.359375 -16.828125 L 29.40625 -27.53125 L 3.359375 -39.609375 L 3.359375 -48.75 L 41.171875 -29.859375 L 41.171875 -24.40625 L 3.359375 -7.734375 Z M 3.359375 -16.828125 "/></g></g></g></svg>