<svg xmlns="http://www.w3.org/2000/svg" xmlns:xlink="http://www.w3.org/1999/xlink" width="500" zoomAndPan="magnify" viewBox="0 0 375 374.999991" height="500" preserveAspectRatio="xMidYMid meet" version="1.2"><defs><clipPath id="ac68002b71"><path d="M 114.117188 92.222656 L 264.117188 92.222656 L 264.117188 242.222656 L 114.117188 242.222656 Z M 114.117188 92.222656 "/></clipPath></defs><g id="b811dd6be7"><rect x="0" width="375" y="0" height="374.999991" style="fill:#ffffff;fill-opacity:1;stroke:none;"/><rect x="0" width="375" y="0" height="374.999991" style="fill:#38abff;fill-opacity:1;stroke:none;"/><g clip-rule="nonzero" clip-path="url(#ac68002b71)"><path style=" stroke:none;fill-rule:evenodd;fill:#ffffff;fill-opacity:1;" d="M 264.117188 242.222656 L 234.117188 242.222656 L 234.117188 189.730469 C 234.117188 175.328125 227.769531 167.296875 216.375 167.296875 C 203.976562 167.296875 196.617188 175.667969 196.617188 189.730469 L 196.617188 242.222656 L 166.617188 242.222656 L 166.617188 144.722656 L 196.617188 144.722656 L 196.617188 155.6875 C 196.617188 155.6875 206.03125 139.175781 227.238281 139.175781 C 248.460938 139.175781 264.117188 152.117188 264.117188 178.910156 Z M 132.433594 129.128906 C 122.316406 129.128906 114.117188 120.863281 114.117188 110.675781 C 114.117188 100.488281 122.316406 92.222656 132.433594 92.222656 C 142.542969 92.222656 150.738281 100.488281 150.738281 110.675781 C 150.75 120.863281 142.542969 129.128906 132.433594 129.128906 Z M 114.117188 242.222656 L 151.617188 242.222656 L 151.617188 144.722656 L 114.117188 144.722656 Z M 114.117188 242.222656 "/></g></g></svg>